<?xml version="1.0" standalone="no"?>
<!DOCTYPE svg PUBLIC "-//W3C//DTD SVG 20010904//EN"
 "http://www.w3.org/TR/2001/REC-SVG-20010904/DTD/svg10.dtd">
<svg version="1.0" xmlns="http://www.w3.org/2000/svg"
 width="189.000000pt" height="75.000000pt" viewBox="0 0 189.000000 75.000000"
 preserveAspectRatio="xMidYMid meet">

<g transform="translate(0.000000,75.000000) scale(0.100000,-0.100000)"
fill="#000000" stroke="none">
<path d="M451 623 c-21 -82 -101 -403 -101 -408 0 -3 85 -5 190 -5 l189 0 9
33 8 32 -108 3 c-98 2 -109 4 -104 20 13 42 86 342 86 352 0 6 -31 10 -80 10
l-79 0 -10 -37z"/>
<path d="M875 526 c-3 -9 -7 -23 -10 -31 -4 -13 14 -15 120 -15 68 0 126 -4
129 -9 4 -5 3 -16 0 -24 -4 -12 -31 -16 -124 -18 -136 -5 -149 -11 -175 -90
-21 -64 -17 -100 15 -116 35 -18 178 -17 214 2 25 13 27 13 22 0 -5 -14 5 -15
71 -13 l77 3 28 110 c32 128 35 177 11 196 -12 10 -62 15 -195 17 -155 3 -179
2 -183 -12z m215 -168 c0 -7 -5 -30 -11 -50 l-10 -38 -56 0 -55 0 7 38 c10 53
21 62 76 62 33 0 49 -4 49 -12z"/>
<path d="M1351 503 c-21 -82 -101 -403 -101 -408 0 -3 36 -5 79 -5 l79 0 18
75 c17 71 19 74 35 59 15 -13 36 -16 111 -12 136 6 151 21 187 176 31 134 16
152 -128 152 -52 0 -83 -5 -97 -15 -25 -19 -35 -19 -28 0 5 13 -6 15 -70 15
l-75 0 -10 -37z m263 -31 c5 -8 -17 -112 -35 -169 -10 -32 -12 -33 -65 -33
-43 0 -54 3 -54 16 0 18 39 174 46 186 7 10 101 10 108 0z"/>
</g>
</svg>
